<svg width="24" height="24" viewBox="0 0 24 24" fill="none" xmlns="http://www.w3.org/2000/svg">
<path d="M19.1354 4.91C17.256 3.03 14.7535 2 12.0902 2C6.60275 2 2.13039 6.45 2.13039 11.91C2.13039 13.66 2.5927 15.36 3.45702 16.86L2.04999 22L7.32637 20.62C8.78366 21.41 10.4218 21.83 12.0902 21.83C17.5776 21.83 22.05 17.38 22.05 11.92C22.05 9.27 21.0148 6.78 19.1354 4.91ZM12.0902 20.15C10.6028 20.15 9.14546 19.75 7.86908 19L7.56757 18.82L4.4319 19.64L5.26607 16.6L5.06506 16.29C4.24094 14.98 3.79873 13.46 3.79873 11.91C3.79873 7.37 7.51732 3.67 12.0801 3.67C14.2912 3.67 16.3716 4.53 17.9294 6.09C19.4972 7.65 20.3515 9.72 20.3515 11.92C20.3716 16.46 16.653 20.15 12.0902 20.15ZM16.6329 13.99C16.3816 13.87 15.1555 13.27 14.9344 13.18C14.7033 13.1 14.5424 13.06 14.3716 13.3C14.2007 13.55 13.7284 14.11 13.5877 14.27C13.447 14.44 13.2962 14.46 13.045 14.33C12.7937 14.21 11.9897 13.94 11.045 13.1C10.3012 12.44 9.80878 11.63 9.65803 11.38C9.51732 11.13 9.63793 11 9.76858 10.87C9.87913 10.76 10.0198 10.58 10.1404 10.44C10.261 10.3 10.3113 10.19 10.3917 10.03C10.4721 9.86 10.4319 9.72 10.3716 9.6C10.3113 9.48 9.80878 8.26 9.60778 7.76C9.40677 7.28 9.19572 7.34 9.04496 7.33C8.89421 7.33 8.7334 7.33 8.56255 7.33C8.3917 7.33 8.13039 7.39 7.89923 7.64C7.67813 7.89 7.03491 8.49 7.03491 9.71C7.03491 10.93 7.92938 12.11 8.04999 12.27C8.17059 12.44 9.80878 14.94 12.3012 16.01C12.8942 16.27 13.3565 16.42 13.7183 16.53C14.3113 16.72 14.854 16.69 15.2862 16.63C15.7686 16.56 16.7636 16.03 16.9646 15.45C17.1756 14.87 17.1756 14.38 17.1053 14.27C17.0349 14.16 16.8842 14.11 16.6329 13.99Z" fill="#C273F2"/>
</svg>
