<svg width="46" height="46" viewBox="0 0 46 46" fill="none" xmlns="http://www.w3.org/2000/svg">
<path d="M40.25 3.83334H24.9166C22.8083 3.83334 21.0833 5.55834 21.0833 7.66668V14.375H23.9583C26.0666 14.375 27.7916 16.1 27.7916 18.2083V27.6958C29.785 28.6158 32.085 28.9992 34.5 28.5967C40.1158 27.6575 44.0833 22.5208 44.0833 16.8283V7.66668C44.0833 5.55834 42.3583 3.83334 40.25 3.83334ZM26.8333 12.4583C26.8333 11.4042 27.6958 10.5417 28.75 10.5417C29.8041 10.5417 30.6666 11.4042 30.6666 12.4583C30.6666 13.5125 29.8041 14.375 28.75 14.375C27.6958 14.375 26.8333 13.5125 26.8333 12.4583ZM36.1291 20.8533H28.9991C28.2708 20.8533 27.7916 20.0675 28.1558 19.4158C28.9033 18.1508 30.59 17.25 32.5641 17.25C34.5383 17.25 36.225 18.1508 36.9725 19.435C37.3366 20.0675 36.8575 20.8533 36.1291 20.8533ZM36.4166 14.375C35.3625 14.375 34.5 13.5125 34.5 12.4583C34.5 11.4042 35.3625 10.5417 36.4166 10.5417C37.4708 10.5417 38.3333 11.4042 38.3333 12.4583C38.3333 13.5125 37.4708 14.375 36.4166 14.375Z" fill="#C273F2"/>
<path d="M21.0833 17.25H5.74999C3.64166 17.25 1.91666 18.975 1.91666 21.0833V30.2642C1.91666 36.11 6.11416 41.3233 11.9025 42.0708C18.9175 42.9717 24.9167 37.5092 24.9167 30.6667V21.0833C24.9167 18.975 23.1917 17.25 21.0833 17.25ZM7.66666 25.875C7.66666 24.8208 8.52916 23.9583 9.58332 23.9583C10.6375 23.9583 11.5 24.8208 11.5 25.875C11.5 26.9292 10.6375 27.7917 9.58332 27.7917C8.52916 27.7917 7.66666 26.9292 7.66666 25.875ZM17.825 32.1042C17.0967 33.3883 15.3908 34.2892 13.4167 34.2892C11.4425 34.2892 9.75582 33.3883 9.00832 32.1042C8.64416 31.4525 9.12332 30.6667 9.85166 30.6667H16.9817C17.71 30.6667 18.1892 31.4525 17.825 32.1042ZM17.25 27.7917C16.1958 27.7917 15.3333 26.9292 15.3333 25.875C15.3333 24.8208 16.1958 23.9583 17.25 23.9583C18.3042 23.9583 19.1667 24.8208 19.1667 25.875C19.1667 26.9292 18.3042 27.7917 17.25 27.7917Z" fill="#C273F2"/>
</svg>
