<svg width="46" height="46" viewBox="0 0 46 46" fill="none" xmlns="http://www.w3.org/2000/svg">
<path d="M22.9808 3.83334C12.4008 3.83334 3.83333 12.42 3.83333 23C3.83333 33.58 12.4008 42.1667 22.9808 42.1667C33.58 42.1667 42.1667 33.58 42.1667 23C42.1667 12.42 33.58 3.83334 22.9808 3.83334ZM36.2633 15.3333H30.6092C29.9958 12.9375 29.1142 10.6375 27.9642 8.51001C31.4908 9.71751 34.4233 12.1708 36.2633 15.3333ZM23 7.74334C24.5908 10.0433 25.8367 12.5925 26.6608 15.3333H19.3392C20.1633 12.5925 21.4092 10.0433 23 7.74334ZM8.165 26.8333C7.85833 25.6067 7.66666 24.3225 7.66666 23C7.66666 21.6775 7.85833 20.3933 8.165 19.1667H14.6433C14.49 20.4317 14.375 21.6967 14.375 23C14.375 24.3033 14.49 25.5683 14.6433 26.8333H8.165ZM9.73666 30.6667H15.3908C16.0042 33.0625 16.8858 35.3625 18.0358 37.49C14.5092 36.2825 11.5767 33.8483 9.73666 30.6667ZM15.3908 15.3333H9.73666C11.5767 12.1517 14.5092 9.71751 18.0358 8.51001C16.8858 10.6375 16.0042 12.9375 15.3908 15.3333ZM23 38.2567C21.4092 35.9567 20.1633 33.4075 19.3392 30.6667H26.6608C25.8367 33.4075 24.5908 35.9567 23 38.2567ZM27.485 26.8333H18.515C18.3425 25.5683 18.2083 24.3033 18.2083 23C18.2083 21.6967 18.3425 20.4125 18.515 19.1667H27.485C27.6575 20.4125 27.7917 21.6967 27.7917 23C27.7917 24.3033 27.6575 25.5683 27.485 26.8333ZM27.9642 37.49C29.1142 35.3625 29.9958 33.0625 30.6092 30.6667H36.2633C34.4233 33.8292 31.4908 36.2825 27.9642 37.49ZM31.3567 26.8333C31.51 25.5683 31.625 24.3033 31.625 23C31.625 21.6967 31.51 20.4317 31.3567 19.1667H37.835C38.1417 20.3933 38.3333 21.6775 38.3333 23C38.3333 24.3225 38.1417 25.6067 37.835 26.8333H31.3567Z" fill="#C273F2"/>
</svg>
