<svg width="45" height="50" viewBox="0 0 45 50" fill="none" xmlns="http://www.w3.org/2000/svg">
<path fill-rule="evenodd" clip-rule="evenodd" d="M8.78906 41.9643C3.9375 41.9643 0 37.9643 0 33.0357C0 29.4643 2.07422 26.4286 5.02734 25C2.07422 23.5714 0 20.5357 0 16.9643C0 12.0357 3.9375 8.03571 8.78906 8.03571C10.6523 8.03571 12.375 8.60714 13.7813 9.60714L13.7109 8.92857C13.7109 4 17.6484 0 22.5 0C27.3516 0 31.2891 4 31.2891 8.92857L31.2187 9.60714C32.6602 8.60714 34.3477 8.03571 36.2109 8.03571C41.0625 8.03571 45 12.0357 45 16.9643C45 20.5357 42.9258 23.5714 39.9727 25C42.9258 26.4286 45 29.4643 45 33.0357C45 37.9643 41.0625 41.9643 36.2109 41.9643C34.3477 41.9643 32.625 41.3929 31.2187 40.3929L31.2891 41.0714C31.2891 46 27.3516 50 22.5 50C17.6484 50 13.7109 46 13.7109 41.0714L13.7813 40.3929C12.3398 41.3929 10.6523 41.9643 8.78906 41.9643ZM31.2891 25C31.2891 20.0714 27.3516 16.0714 22.5 16.0714C17.6484 16.0714 13.7109 20.0714 13.7109 25C13.7109 29.9286 17.6484 33.9286 22.5 33.9286C27.3516 33.9286 31.2891 29.9286 31.2891 25Z" fill="#E4C6F6"/>
</svg>
